<svg xmlns="http://www.w3.org/2000/svg" width="1015" height="346" viewBox="0 0 10150 3460"><g fill="rgb(255,127,39)"><g><path d="M7380 2926 c0 -73 4 -116 10 -116 6 0 13 7 16 15 5 13 10 13 36 -1 29 -15 32 -15 57 4 64 48 20 170 -52 143 -25 -10 -26 -8 -29 27 -2 26 -8 38 -20 40 -16 3 -18 -7 -18 -112z m105 -31 c0 -38 -2 -40 -30 -40 -26 0 -30 4 -33 28 -5 44 4 59 35 55 25 -3 28 -7 28 -43z"></path><path d="M7914 3030 c-28 -11 -38 -27 -28 -48 4 -9 8 -46 8 -82 1 -58 3 -66 26 -77 14 -7 44 -13 68 -13 35 0 42 3 42 20 0 11 -5 20 -11 20 -5 0 -7 4 -4 10 3 5 -6 22 -20 36 -19 19 -32 24 -51 20 -17 -5 -24 -2 -24 8 0 8 16 16 42 20 76 12 94 56 33 82 -39 16 -51 16 -81 4z m76 -35 c0 -10 -11 -15 -35 -15 -24 0 -35 5 -35 15 0 10 11 15 35 15 24 0 35 -5 35 -15z m-10 -130 c0 -20 -5 -25 -24 -25 -14 0 -28 5 -31 10 -12 19 4 40 30 40 20 0 25 -5 25 -25z"></path><path d="M9274 3030 c-28 -11 -38 -27 -28 -48 4 -9 8 -46 8 -82 1 -58 3 -66 26 -77 14 -7 44 -13 68 -13 35 0 42 3 42 20 0 11 -5 20 -11 20 -5 0 -7 4 -4 10 3 5 -6 22 -20 36 -19 19 -32 24 -51 20 -17 -5 -24 -2 -24 8 0 8 16 16 42 20 76 12 94 56 33 82 -39 16 -51 16 -81 4z m76 -35 c0 -10 -11 -15 -35 -15 -24 0 -35 5 -35 15 0 10 11 15 35 15 24 0 35 -5 35 -15z m-10 -130 c0 -20 -5 -25 -24 -25 -14 0 -28 5 -31 10 -12 19 4 40 30 40 20 0 25 -5 25 -25z"></path><path d="M5194 2967 c-2 -7 -3 -58 -2 -113 2 -80 6 -99 18 -99 12 0 16 18 18 93 l3 92 39 0 c33 0 40 3 40 20 0 18 -7 20 -55 20 -37 0 -57 -4 -61 -13z"></path><path d="M5379 2969 c-51 -19 -61 -96 -18 -135 43 -39 119 -9 119 48 0 27 -1 28 -56 28 -73 0 -70 24 4 28 47 3 65 13 45 25 -20 12 -71 15 -94 6z m69 -101 c-3 -7 -20 -13 -38 -13 -18 0 -35 6 -37 13 -3 8 8 12 37 12 29 0 40 -4 38 -12z"></path><path d="M5543 2970 c-15 -6 -23 -18 -23 -33 0 -31 15 -43 63 -52 54 -10 49 -35 -8 -35 -32 0 -45 -4 -45 -14 0 -18 60 -29 92 -17 31 12 38 29 38 96 0 52 -15 80 -29 56 -6 -9 -15 -9 -35 -1 -15 5 -28 10 -29 9 -1 0 -12 -4 -24 -9z m75 -48 c3 -10 -5 -13 -29 -10 -18 2 -34 9 -37 16 -3 10 5 13 29 10 18 -2 34 -9 37 -16z"></path><path d="M5710 2896 c0 -52 4 -86 10 -86 6 0 13 7 16 15 5 12 9 12 28 0 23 -15 36 -11 36 11 0 7 -10 14 -22 16 -20 3 -24 10 -28 63 -4 47 -9 61 -22 63 -16 3 -18 -6 -18 -82z"></path><path d="M5840 2896 c0 -52 4 -86 10 -86 6 0 13 6 16 14 4 12 10 12 35 -1 27 -13 32 -13 54 1 23 15 25 23 25 87 0 62 -2 70 -17 67 -15 -3 -19 -16 -21 -66 -3 -62 -3 -63 -30 -60 -25 3 -27 7 -32 63 -4 47 -9 61 -22 63 -16 3 -18 -6 -18 -82z"></path><path d="M6146 2967 c-12 -9 -20 -31 -24 -65 -2 -29 -8 -52 -13 -52 -5 0 -9 -9 -9 -20 0 -11 4 -20 9 -20 5 0 11 -9 14 -20 3 -11 12 -20 21 -20 9 0 16 8 16 20 0 13 7 20 20 20 13 0 20 7 20 20 0 13 -7 20 -20 20 -17 0 -20 7 -20 45 0 38 3 45 20 45 24 0 27 25 4 34 -20 8 -17 8 -38 -7z"></path><path d="M6263 2966 c-61 -27 -52 -122 14 -147 38 -14 88 5 103 40 30 75 -41 140 -117 107z m83 -50 c11 -43 -3 -66 -41 -66 -38 0 -52 23 -41 66 5 20 13 24 41 24 28 0 36 -4 41 -24z"></path><path d="M6515 2968 c-3 -8 -4 -63 -3 -124 2 -89 6 -109 18 -109 12 0 15 20 15 119 0 87 -3 120 -12 123 -7 3 -15 -2 -18 -9z"></path><path d="M6639 2969 c-51 -19 -61 -96 -18 -135 43 -39 119 -9 119 48 0 27 -1 28 -56 28 -73 0 -70 24 4 28 47 3 65 13 45 25 -20 12 -71 15 -94 6z m69 -101 c-3 -7 -20 -13 -38 -13 -18 0 -35 6 -37 13 -3 8 8 12 37 12 29 0 40 -4 38 -12z"></path><path d="M6803 2970 c-15 -6 -23 -18 -23 -33 0 -31 15 -43 63 -52 54 -10 49 -35 -8 -35 -32 0 -45 -4 -45 -14 0 -18 60 -29 92 -17 31 12 38 29 38 96 0 52 -15 80 -29 56 -6 -9 -15 -9 -35 -1 -15 5 -28 10 -29 9 -1 0 -12 -4 -24 -9z m75 -48 c3 -10 -5 -13 -29 -10 -18 2 -34 9 -37 16 -3 10 5 13 29 10 18 -2 34 -9 37 -16z"></path><path d="M6970 2896 c0 -52 4 -86 10 -86 6 0 13 7 16 15 5 12 9 12 28 0 23 -15 36 -11 36 11 0 7 -10 14 -22 16 -20 3 -24 10 -28 63 -4 47 -9 61 -22 63 -16 3 -18 -6 -18 -82z"></path><path d="M7100 2896 c0 -52 4 -86 10 -86 6 0 13 6 16 14 4 12 10 12 35 -1 27 -13 32 -13 54 1 23 15 25 23 25 87 0 62 -2 70 -17 67 -15 -3 -19 -16 -21 -66 -3 -62 -3 -63 -30 -60 -25 3 -27 7 -32 63 -4 47 -9 61 -22 63 -16 3 -18 -6 -18 -82z"></path><path d="M7577 2973 c-4 -3 -7 -39 -7 -79 0 -74 13 -101 34 -72 10 14 14 14 30 2 21 -15 36 -10 36 12 0 8 -8 14 -18 14 -30 0 -42 22 -42 77 0 37 -4 53 -13 53 -8 0 -17 -3 -20 -7z"></path><path d="M7733 2970 c-27 -11 -43 -40 -43 -77 1 -35 19 -59 55 -73 54 -21 105 13 105 70 0 22 -8 47 -17 58 -21 24 -69 35 -100 22z m78 -51 c8 -16 8 -28 0 -46 -9 -20 -17 -24 -44 -21 -27 3 -33 8 -35 31 -5 43 4 57 37 57 21 0 34 -7 42 -21z"></path><path d="M8075 2967 c-11 -27 -1 -150 13 -155 6 -2 12 4 12 12 0 15 2 15 26 0 19 -13 28 -14 37 -5 13 13 1 27 -28 33 -17 3 -21 13 -25 62 -5 57 -23 85 -35 53z"></path><path d="M8200 2962 c-35 -28 -19 -60 36 -74 59 -16 58 -38 -2 -38 -31 0 -44 -4 -42 -12 7 -21 66 -30 96 -16 25 12 27 18 30 86 3 70 -3 83 -25 61 -8 -8 -17 -8 -31 0 -28 15 -36 14 -62 -7z m80 -37 c0 -10 -10 -15 -30 -15 -20 0 -30 5 -30 15 0 10 10 15 30 15 20 0 30 -5 30 -15z"></path><path d="M8377 2973 c-4 -3 -7 -39 -7 -79 0 -73 14 -103 33 -72 9 13 13 13 39 1 25 -13 32 -13 51 0 20 13 26 13 51 0 24 -13 30 -13 52 2 22 14 24 22 24 86 0 62 -2 70 -17 67 -15 -3 -19 -16 -21 -66 -3 -62 -3 -63 -30 -60 -25 3 -27 7 -32 63 -4 44 -9 60 -20 60 -11 0 -16 -16 -20 -60 -4 -47 -9 -61 -23 -63 -32 -6 -47 17 -47 74 0 38 -4 54 -13 54 -8 0 -17 -3 -20 -7z"></path><path d="M8675 2967 c-11 -27 -1 -150 13 -155 6 -2 12 4 12 12 0 15 3 15 30 1 26 -13 35 -14 58 -3 22 11 32 11 54 0 33 -16 65 -3 74 31 10 44 0 122 -16 122 -11 0 -16 -15 -18 -63 -3 -62 -3 -63 -30 -60 -25 3 -27 7 -32 63 -4 46 -9 61 -22 63 -14 3 -17 -7 -20 -60 -3 -63 -3 -63 -33 -63 -29 0 -30 1 -35 59 -5 57 -23 85 -35 53z"></path><path d="M8975 2967 c-4 -8 -5 -45 -3 -83 2 -53 6 -69 18 -69 12 0 15 15 15 79 0 55 -4 81 -12 83 -7 3 -15 -2 -18 -10z"></path><path d="M9065 2967 c-11 -27 -1 -150 13 -155 6 -2 12 4 12 12 0 15 3 15 31 1 28 -15 33 -15 54 -1 39 26 49 147 13 154 -14 3 -17 -7 -20 -60 -3 -63 -3 -63 -33 -63 -29 0 -30 1 -35 59 -5 57 -23 85 -35 53z"></path><path d="M2250 2833 c-14 -2 -49 -11 -77 -19 l-53 -15 0 -164 0 -164 38 16 c22 10 64 16 103 16 116 0 191 -54 235 -169 9 -24 14 -47 11 -51 -4 -3 -30 5 -59 17 -72 31 -179 38 -247 15 -67 -22 -152 -100 -185 -168 -40 -86 -46 -149 -46 -509 l0 -338 195 0 195 0 0 305 0 306 25 24 c32 33 78 33 110 0 l25 -24 0 -306 0 -305 196 0 195 0 -3 527 c-4 574 -5 579 -64 697 -110 220 -358 348 -594 309z"></path><path d="M8973 2774 c-8 -21 13 -42 28 -27 13 13 5 43 -11 43 -6 0 -13 -7 -17 -16z"></path><path d="M4270 2350 c-153 -24 -285 -111 -372 -244 -56 -86 -78 -168 -78 -286 0 -167 53 -286 178 -402 103 -94 220 -138 372 -138 147 0 261 43 364 139 107 100 166 231 166 372 l0 79 -297 -2 -298 -3 -3 -50 c-2 -27 -1 -65 3 -82 l6 -33 99 0 c94 0 100 -1 100 -20 0 -67 -64 -115 -142 -108 -60 6 -95 30 -128 89 -22 39 -25 56 -25 144 0 88 3 105 25 145 30 54 81 90 127 90 36 0 109 -32 115 -51 4 -11 218 237 218 251 0 12 -107 69 -165 88 -72 24 -190 34 -265 22z"></path><path d="M3520 2339 c-86 -16 -202 -83 -269 -154 -138 -148 -150 -223 -151 -897 l0 -378 195 0 195 0 0 200 0 200 90 0 90 0 0 205 0 205 -91 0 -92 0 7 63 c10 87 31 126 80 148 23 10 56 19 74 19 l32 0 0 200 0 200 -57 -1 c-32 -1 -78 -5 -103 -10z"></path><path d="M780 1625 l0 -715 293 0 c310 0 392 7 481 40 73 28 147 95 177 162 20 44 24 70 24 148 0 81 -4 103 -26 150 -14 30 -48 80 -76 110 l-50 54 56 36 c67 44 117 98 145 159 17 38 21 66 21 161 0 104 -3 121 -26 171 -50 107 -145 186 -254 213 -33 8 -106 18 -162 21 l-103 7 0 -181 0 -181 70 0 c62 0 74 -3 95 -25 27 -26 31 -51 14 -89 -14 -31 -56 -46 -125 -46 l-54 0 0 -185 0 -185 29 0 c46 0 83 -38 83 -84 0 -61 -27 -80 -117 -84 l-75 -4 0 531 0 531 -210 0 -210 0 0 -715z"></path></g></g><g fill="rgb(255,63,63)"><g><path d="M6353 2236 c-184 -60 -287 -229 -270 -445 8 -106 39 -182 104 -251 87 -95 209 -134 365 -118 165 16 300 136 337 299 13 56 13 171 1 227 -27 115 -104 213 -208 264 -62 31 -75 33 -177 35 -72 2 -125 -2 -152 -11z m231 -151 c146 -70 156 -398 15 -492 -86 -56 -213 -34 -267 46 -60 92 -69 251 -18 354 51 106 162 143 270 92z"></path><path d="M7310 2223 c-24 -22 -59 -97 -161 -348 -71 -176 -132 -338 -135 -360 -5 -34 -2 -44 21 -68 39 -39 97 -40 131 -3 11 13 65 145 119 295 54 149 101 268 105 264 4 -5 51 -127 105 -272 54 -145 108 -275 120 -289 47 -55 145 -17 145 57 0 54 -257 686 -293 723 -24 23 -37 28 -78 28 -39 0 -55 -5 -79 -27z"></path><path d="M8147 2231 c-120 -40 -202 -122 -238 -242 -28 -94 -24 -255 10 -341 29 -75 106 -160 175 -192 108 -51 264 -54 370 -8 64 29 141 104 173 171 21 44 27 72 27 127 2 126 -18 134 -341 134 -228 0 -233 0 -233 21 0 94 71 192 156 214 91 24 165 -2 266 -92 37 -33 57 -43 83 -43 45 0 70 34 60 81 -11 49 -86 122 -158 155 -55 25 -75 29 -177 31 -92 2 -127 -1 -173 -16z m322 -512 c-21 -134 -145 -204 -265 -150 -48 22 -81 64 -100 128 -24 78 -36 73 180 73 l193 0 -8 -51z"></path><path d="M8886 2225 c-13 -14 -26 -42 -30 -63 -3 -20 -6 -170 -6 -332 0 -380 8 -410 101 -410 39 0 51 4 68 26 12 15 21 35 21 45 0 48 12 49 47 4 18 -25 48 -52 64 -61 75 -38 220 -4 255 61 17 32 17 36 1 69 -20 43 -51 53 -121 37 -97 -21 -128 -18 -164 18 -49 50 -64 126 -70 364 -5 203 -6 210 -29 238 -34 40 -102 42 -137 4z"></path><path d="M5293 2231 c-23 -4 -49 -14 -59 -22 -42 -35 -44 -57 -44 -538 0 -501 2 -523 56 -552 30 -16 83 -15 114 1 48 26 50 49 50 509 l0 430 266 3 266 3 19 24 c30 36 22 98 -14 125 -27 20 -41 21 -320 23 -161 0 -311 -2 -334 -6z"></path><path d="M8669 1198 c0 -2 -3 -16 -5 -33 -2 -16 -9 -50 -15 -74 -5 -24 -12 -62 -15 -85 -3 -22 -10 -57 -14 -76 -8 -32 -12 -50 -26 -135 -3 -16 -9 -44 -13 -61 -11 -42 17 -152 48 -183 41 -41 125 -73 184 -70 28 1 62 9 74 17 12 7 24 12 26 10 14 -13 105 101 99 124 -2 9 11 11 46 8 66 -5 181 59 197 110 3 11 10 20 14 20 10 0 12 13 16 89 6 132 -49 190 -224 235 -56 15 -121 33 -144 41 -23 7 -80 23 -127 35 -47 11 -93 23 -102 26 -10 3 -18 4 -19 2z m341 -184 c39 -7 124 -33 136 -41 23 -16 54 -79 54 -111 0 -18 -10 -46 -22 -63 -35 -48 -74 -64 -152 -64 l-68 0 -20 -53 c-37 -99 -148 -146 -209 -89 -59 54 -66 84 -45 189 8 40 22 116 31 168 27 153 13 143 152 103 65 -19 129 -37 143 -39z"></path></g></g></svg>